
        <svg xmlns="http://www.w3.org/2000/svg" xmlns:xlink="http://www.w3.org/1999/xlink" version="1.1" width="3187.5" height="1125" viewBox="0 0 3187.5 1125">
			
			<g transform="scale(9.375) translate(10, 10)">
				<defs id="SvgjsDefs1999"/><g id="SvgjsG2000" featureKey="symbolFeature-0" transform="matrix(1.1111111111111112,0,0,1.1111111111111112,-5.555555555555555,-5.555555555555555)" fill="#fff"><metadata xmlns="http://www.w3.org/2000/svg"> Produced by OmniGraffle 6.0.5 </metadata><g xmlns="http://www.w3.org/2000/svg" stroke="none" stroke-opacity="1" stroke-dasharray="none" fill-opacity="1"><title>Canvas 2</title><g><title>Layer 1</title><path d="M 12 91 L 12 95 L 88 95 L 88 91 Z M 23 60 L 35 60 L 35 76 L 23 76 Z M 23 78.5 L 35 78.5 L 35 82 L 23 82 Z M 65 60 L 77 60 L 77 76 L 65 76 Z M 65 78.5 L 77 78.5 L 77 82 L 65 82 Z M 37 29 L 49 29 L 49 39 L 37 39 Z M 37 41.5 L 49 41.5 L 49 45 L 37 45 Z M 51 29 L 63 29 L 63 39 L 51 39 Z M 51 41.5 L 63 41.5 L 63 45 L 51 45 Z M 42 89.125 L 42 65.008025 L 42 65 L 41.999996 65 C 41.999996 62.952624 42.781048 60.905248 44.343152 59.343152 C 47.467344 56.218944 52.532656 56.218944 55.656848 59.343152 C 57.218952 60.905248 58.000004 62.952624 58.000004 65 C 58.000004 65.002675 58.000003 65.00535 58 65.008025 L 58 89.125 L 84 89.125 L 84 40 L 95 40 L 50 5 L 32 19 L 32 5 L 20 5 L 20 28.333333 L 5 40 L 16 40 L 16 89.125 Z"/></g></g></g><g id="SvgjsG2001" featureKey="nameFeature-0" transform="matrix(1.1876483914890394,0,0,1.1876483914890394,118.14726857723488,-5.871730177144203)" fill="#fff"><path d="M11 40 l-5.4 -20.28 l-0.08 0 l0 20.28 l-3.96 0 l0 -28 l5.52 0 l4.44 16.76 l0.08 0 l0 -16.76 l3.92 0 l0 28 l-4.52 0 z M23.080000000000002 16 l0 7.8 l6.04 0 l0 4 l-6.04 0 l0 8.2 l7.6 0 l0 4 l-12 0 l0 -28 l12 0 l0 4 l-7.6 0 z M44.760000000000005 40 l-1.56 -14.92 l-0.08 0 l-1.56 14.92 l-6.04 0 l-3.12 -28 l4.28 0 l2.32 22.08 l0.08 0 l2.08 -22.08 l4.24 0 l2.16 22.24 l0.08 0 l2.24 -22.24 l3.84 0 l-3.12 28 l-5.84 0 z M66.52000000000001 16 l0 7.8 l6.04 0 l0 4 l-6.04 0 l0 8.2 l7.6 0 l0 4 l-12 0 l0 -28 l12 0 l0 4 l-7.6 0 z M86.24000000000001 40 l-5.4 -20.28 l-0.08 0 l0 20.28 l-3.96 0 l0 -28 l5.52 0 l4.44 16.76 l0.08 0 l0 -16.76 l3.92 0 l0 28 l-4.52 0 z M100.52000000000001 28.4 l0 -4 l6.16 0 l0 8.88 c0 4.48 -2.24 7.04 -6.56 7.04 s-6.56 -2.56 -6.56 -7.04 l0 -14.56 c0 -4.48 2.24 -7.04 6.56 -7.04 s6.56 2.56 6.56 7.04 l0 2.72 l-4.16 0 l0 -3 c0 -2 -0.88 -2.76 -2.28 -2.76 s-2.28 0.76 -2.28 2.76 l0 15.12 c0 2 0.88 2.72 2.28 2.72 s2.28 -0.72 2.28 -2.72 l0 -5.16 l-2 0 z M109.52 40 l0 -28 l4.4 0 l0 24 l7.24 0 l0 4 l-11.64 0 z M132.84 12 l4.48 28 l-4.44 0 l-0.76 -5.08 l-5.4 0 l-0.76 5.08 l-4.04 0 l4.48 -28 l6.44 0 z M129.36 16.96 l-2.08 14.16 l4.24 0 l-2.08 -14.16 l-0.08 0 z M148.76 40 l-5.4 -20.28 l-0.08 0 l0 20.28 l-3.96 0 l0 -28 l5.52 0 l4.44 16.76 l0.08 0 l0 -16.76 l3.92 0 l0 28 l-4.52 0 z M156.44 40 l0 -28 l6.96 0 c4.4 0 6.56 2.44 6.56 6.92 l0 14.16 c0 4.48 -2.16 6.92 -6.56 6.92 l-6.96 0 z M163.32 16 l-2.48 0 l0 20 l2.48 0 c1.4 0 2.24 -0.72 2.24 -2.72 l0 -14.56 c0 -2 -0.84 -2.72 -2.24 -2.72 z"/></g><g id="SvgjsG2002" featureKey="nameFeature-1" transform="matrix(1.389274881017264,0,0,1.389274881017264,119.55543246204752,35.77327294049263)" fill="#fff"><path d="M0.32 16 l0 -4 l13.6 0 l0 4 l-4.6 0 l0 24 l-4.4 0 l0 -24 l-4.6 0 z M15.84 40 l0 -28 l4.4 0 l0 28 l-4.4 0 z M32.84 40 l-5.4 -20.28 l-0.08 0 l0 20.28 l-3.96 0 l0 -28 l5.52 0 l4.44 16.76 l0.08 0 l0 -16.76 l3.92 0 l0 28 l-4.52 0 z M44.64 40 l0 -9.28 l-5.56 -18.72 l4.6 0 l3.32 12.76 l0.08 0 l3.32 -12.76 l4.2 0 l-5.56 18.72 l0 9.28 l-4.4 0 z M66.96000000000001 28 l0 12 l-4.4 0 l0 -28 l4.4 0 l0 12 l5 0 l0 -12 l4.48 0 l0 28 l-4.48 0 l0 -12 l-5 0 z M83.68 18.44 l0 15.12 c0 2 0.88 2.76 2.28 2.76 s2.28 -0.76 2.28 -2.76 l0 -15.12 c0 -2 -0.88 -2.76 -2.28 -2.76 s-2.28 0.76 -2.28 2.76 z M79.28 33.28 l0 -14.56 c0 -4.48 2.36 -7.04 6.68 -7.04 s6.68 2.56 6.68 7.04 l0 14.56 c0 4.48 -2.36 7.04 -6.68 7.04 s-6.68 -2.56 -6.68 -7.04 z M101.56 12 l3.2 19.88 l0.08 0 l2.96 -19.88 l6.12 0 l0 28 l-4.16 0 l0 -20.08 l-0.08 0 l-2.96 20.08 l-4.16 0 l-3.2 -19.8 l-0.08 0 l0 19.8 l-3.84 0 l0 -28 l6.12 0 z M121.52000000000001 16 l0 7.8 l6.04 0 l0 4 l-6.04 0 l0 8.2 l7.6 0 l0 4 l-12 0 l0 -28 l12 0 l0 4 l-7.6 0 z M131.28 18.72 c0 -4.48 2.2 -7.04 6.48 -7.04 s6.48 2.56 6.48 7.04 l0 0.88 l-4.16 0 l0 -1.16 c0 -2 -0.8 -2.76 -2.2 -2.76 s-2.2 0.76 -2.2 2.76 c0 2.04 0.88 3.56 3.76 6.08 c3.68 3.24 4.84 5.56 4.84 8.76 c0 4.48 -2.24 7.04 -6.56 7.04 s-6.56 -2.56 -6.56 -7.04 l0 -1.72 l4.16 0 l0 2 c0 2 0.88 2.72 2.28 2.72 s2.28 -0.72 2.28 -2.72 c0 -2.04 -0.88 -3.56 -3.76 -6.08 c-3.68 -3.24 -4.84 -5.56 -4.84 -8.76 z"/></g>
			</g>
		</svg>
	